<svg width="55" height="55" viewBox="0 0 55 55" fill="none" xmlns="http://www.w3.org/2000/svg">
<path d="M27.4996 50.9792C40.3215 50.9792 50.9787 40.3446 50.9787 27.5001C50.9787 14.6782 40.2979 4.021 27.476 4.021C14.6326 4.021 4.02148 14.6782 4.02148 27.5001C4.02148 40.3446 14.6551 50.9792 27.4996 50.9792ZM27.5006 47.0664C16.6342 47.0664 7.95497 38.3646 7.95497 27.5001C7.95497 16.6572 16.6106 7.93385 27.476 7.93385C38.3179 7.93385 47.0413 16.6582 47.0649 27.5001C47.0875 38.3655 38.3405 47.0664 27.4986 47.0664M21.9741 32.9333C27.3366 38.3194 34.1743 41.7255 38.2256 37.6967C38.3691 37.5553 38.4999 37.4014 38.6165 37.2371C39.6752 36.0634 39.9748 34.4979 38.6165 33.4853C37.5577 32.7251 36.4302 31.9433 34.519 30.6076C33.1843 29.6647 32.3092 29.8936 31.274 30.9297L30.3527 31.8274C30.0768 32.0808 29.6397 32.0582 29.3401 31.8736C28.5348 31.3904 27.1765 30.3081 25.8869 29.0195C24.6209 27.7525 23.4709 26.3264 23.0328 25.5663C22.8718 25.3129 22.7568 24.8984 23.079 24.5998L23.9767 23.6324C25.0128 22.5511 25.2426 21.7222 24.2762 20.3639L21.4447 16.3587C20.4773 15.0004 19.0738 15.2538 17.5309 16.4048C17.4159 16.4972 17.3246 16.5895 17.2323 16.6808C13.1809 20.7322 16.6106 27.5689 21.9741 32.9323" fill="#4B882A"/>
</svg>
