<svg width="55" height="55" viewBox="0 0 55 55" fill="none" xmlns="http://www.w3.org/2000/svg">
<path d="M27.5002 4.5835C14.896 4.5835 4.5835 14.896 4.5835 27.5002C4.5835 40.1043 14.896 50.4168 27.5002 50.4168C40.1043 50.4168 50.4168 40.1043 50.4168 27.5002C50.4168 14.896 40.1043 4.5835 27.5002 4.5835ZM27.5002 45.8335C17.3939 45.8335 9.16683 37.6064 9.16683 27.5002C9.16683 17.3939 17.3939 9.16683 27.5002 9.16683C37.6064 9.16683 45.8335 17.3939 45.8335 27.5002C45.8335 37.6064 37.6064 45.8335 27.5002 45.8335ZM28.646 16.0418H25.2085V29.7918L37.1252 37.1252L38.9585 34.146L28.646 27.9585V16.0418Z" fill="#4B882A"/>
</svg>
