<svg width="55" height="55" viewBox="0 0 55 55" fill="none" xmlns="http://www.w3.org/2000/svg">
<path d="M27.5 3.4375C14.2119 3.4375 3.4375 14.2119 3.4375 27.5C3.4375 40.7881 14.2119 51.5625 27.5 51.5625C40.7881 51.5625 51.5625 40.7881 51.5625 27.5C51.5625 14.2119 40.7881 3.4375 27.5 3.4375ZM27.5 47.4805C16.4678 47.4805 7.51953 38.5322 7.51953 27.5C7.51953 16.4678 16.4678 7.51953 27.5 7.51953C38.5322 7.51953 47.4805 16.4678 47.4805 27.5C47.4805 38.5322 38.5322 47.4805 27.5 47.4805Z" fill="#4B882A"/>
<path d="M36.8833 34.2998L29.2241 28.7622V15.4688C29.2241 15.2324 29.0308 15.0391 28.7944 15.0391H26.2109C25.9746 15.0391 25.7812 15.2324 25.7812 15.4688V30.2607C25.7812 30.4004 25.8457 30.5293 25.9585 30.6099L34.8423 37.0874C35.0356 37.2271 35.3042 37.1841 35.4438 36.9961L36.98 34.9014C37.1196 34.7026 37.0767 34.4341 36.8833 34.2998Z" fill="#4B882A"/>
</svg>
