<svg width="55" height="55" viewBox="0 0 55 55" fill="none" xmlns="http://www.w3.org/2000/svg">
<path d="M27.5 30.9375C25.8003 30.9375 24.1388 30.4335 22.7256 29.4892C21.3123 28.5449 20.2109 27.2027 19.5604 25.6324C18.91 24.0621 18.7398 22.3342 19.0714 20.6672C19.403 19.0002 20.2214 17.4689 21.4233 16.2671C22.6252 15.0652 24.1564 14.2467 25.8234 13.9151C27.4905 13.5835 29.2184 13.7537 30.7887 14.4042C32.359 15.0546 33.7012 16.1561 34.6454 17.5693C35.5897 18.9826 36.0938 20.6441 36.0938 22.3438C36.091 24.6221 35.1847 26.8064 33.5737 28.4174C31.9626 30.0285 29.7784 30.9348 27.5 30.9375ZM27.5 17.1875C26.4802 17.1875 25.4833 17.4899 24.6353 18.0565C23.7874 18.6231 23.1265 19.4284 22.7363 20.3705C22.346 21.3127 22.2439 22.3495 22.4428 23.3497C22.6418 24.3499 23.1329 25.2687 23.854 25.9898C24.5751 26.7109 25.4939 27.202 26.4941 27.4009C27.4943 27.5999 28.531 27.4978 29.4732 27.1075C30.4154 26.7172 31.2207 26.0564 31.7873 25.2084C32.3538 24.3605 32.6563 23.3636 32.6563 22.3438C32.6549 20.9767 32.1112 19.6659 31.1445 18.6992C30.1778 17.7326 28.8671 17.1889 27.5 17.1875Z" fill="#4B882A"/>
<path d="M27.5 51.5625L13.0006 34.4627C12.7992 34.2059 12.5998 33.9475 12.4025 33.6875C9.92701 30.4243 8.58915 26.4397 8.59376 22.3438C8.59376 17.3295 10.5857 12.5206 14.1313 8.97501C17.6769 5.4294 22.4858 3.4375 27.5 3.4375C32.5143 3.4375 37.3231 5.4294 40.8688 8.97501C44.4144 12.5206 46.4063 17.3295 46.4063 22.3438C46.4102 26.4377 45.0731 30.4203 42.5992 33.6823L42.5975 33.6875C42.5975 33.6875 42.0819 34.3647 42.0045 34.4558L27.5 51.5625ZM15.1474 31.6164C15.1474 31.6164 15.5478 32.1458 15.6389 32.2592L27.5 46.2481L39.3766 32.2403C39.4522 32.1458 39.8544 31.613 39.8561 31.6113C41.8794 28.9457 42.9729 25.6902 42.9688 22.3438C42.9688 18.2412 41.339 14.3066 38.4381 11.4057C35.5371 8.50474 31.6026 6.875 27.5 6.875C23.3974 6.875 19.4629 8.50474 16.562 11.4057C13.661 14.3066 12.0313 18.2412 12.0313 22.3438C12.027 25.6924 13.1217 28.9499 15.1474 31.6164Z" fill="#4B882A"/>
</svg>
