<?xml version="1.0" encoding="UTF-8"?>
<svg id="Layer_1" data-name="Layer 1" xmlns="http://www.w3.org/2000/svg" viewBox="0 0 341.75 238.93">
  <defs>
    <style>
      .cls-1 {
        fill: #ffc668;
      }

      .cls-2 {
        fill: #fff;
      }
    </style>
  </defs>
  <path class="cls-2" d="M197.1,235.36l50.12-85.74c2.61-.37,5.28.52,8.1.31,20.35-1.5,29.29-22.18,31.29-38.41,3.22-26.12-9.3-39.73-35.19-21.7-14.64,10.2-31.63,30.68-21.11,47.78,1.29,2.1,3.21,3.76,4.69,5.71-6.63,7.82-12.97,15.83-19.46,23.74-15.32,18.7-30.4,36.9-44.48,56.48-.18.24.11.62-.74.53-1.25-2.86-2.82-5.6-3.74-8.6-3.54-11.57-3.52-25.2-2.56-37.23,2.88-36.21,19.42-73.46,44.81-101.45C239.68,42.8,284.45,22.81,324.71.25c6.28-1.17,9.61,1.89,11.23,7.16,17.98,58.33-7.79,130.41-50.24,175.79-22.94,24.52-53.73,45.99-88.6,52.17Z"/>
  <path class="cls-2" d="M170.14,223.24l-64.49-75.13.19-.58c8.64-5.29,10.85-14.94,5.69-23.7-9-15.3-21.66-29.79-30.89-45.11-4.04-5.09-11.58-.54-9.34,5.45l25.95,37.98c2.17,5.12-4.2,8.94-7.48,4.44-8.74-11.1-15.83-25.25-24.67-36.06-4.44-5.42-11.11-1.93-9.73,4.64l26.19,38.55c1.56,4.88-3.71,8.44-7.34,4.7l-26.01-37.93c-4.55-3.27-10.32.51-8.65,5.97l33.32,48.71c5.26,4.69,11.29,5.56,17.81,2.92.96-.39,3.26-2.15,3.92-1.71l51.07,82.55c-29.07-2.65-56.9-18.74-78.14-38.16C21.72,158.86-6.58,93.62,1.32,30.78c.48-3.82,1.27-10.06,2.4-13.59,1.45-4.52,5.91-6.04,10.03-3.95,33.91,18.09,71.72,32.38,100.88,58.05,30.5,26.85,51.79,66.6,57.52,107.02,2.09,14.75,2.96,30.7-2,44.94Z"/>
  <path class="cls-1" d="M170.61,39.53c-1.71,3.23-2.2,7.55-4.45,10.31l-2.37-.57-3.51-9.45-10.15-4.18-.08-2.3,10.03-4.19c1.53-1.75,2.8-9.61,4.74-10.19.43-.13.92-.17,1.35-.02,1.37.46,2.94,8.46,4.5,10.06,1.65,1.7,7.09,2.43,9.24,3.79.91.58,1.22,1.48.75,2.44-.7,1.41-8.3,3.33-10.05,4.3Z"/>
</svg>