<svg width="560" height="478" viewBox="0 0 560 478" fill="none" xmlns="http://www.w3.org/2000/svg">
<path d="M519.273 95.7124C503.07 81.1474 480.845 73.3722 455.117 73.3722C433.768 73.3722 410.886 78.4097 387.457 87.9371C385.486 84.1042 383.406 80.3809 381.216 76.767C355.926 34.2768 322.206 10.951 286.295 10.951C250.385 10.951 216.555 34.2768 191.375 76.767C188.419 81.695 185.682 86.842 183.054 92.208C156.669 80.4904 130.612 74.3578 106.855 74.3578C80.0315 74.3578 56.9308 82.352 40.2896 97.574C13.6855 121.666 4.81744 161.966 15.2182 211.027C25.5095 259.54 53.5369 310.791 94.1547 355.472C122.182 386.244 153.932 411.76 186.01 429.173C207.031 440.562 228.051 448.337 247.758 452.279C257.283 455.017 267.684 456.55 278.741 456.55C279.289 456.55 279.727 456.55 280.274 456.55C282.354 456.66 284.325 456.769 286.405 456.769C294.945 456.769 303.265 455.455 311.476 452.936C363.042 441.876 419.863 406.285 466.393 354.596C506.902 309.587 534.819 258.007 544.892 209.494C555.183 160.324 546.096 120.024 519.273 95.9314V95.7124ZM286.405 16.4266C324.614 16.4266 358.991 44.8994 382.53 90.0178C383.406 91.6605 384.172 93.3031 385.048 94.9458C403.551 132.617 414.718 181.021 414.718 233.696C414.718 315.391 388.004 386.792 348.481 423.916C369.283 399.386 376.29 363.466 368.297 321.304C359.429 274.324 332.387 222.526 292.098 175.546C289.361 172.37 286.624 169.304 283.887 166.347C282.683 165.033 281.369 163.609 280.164 162.295C256.078 136.888 228.708 115.753 200.133 100.531C196.192 98.4501 192.141 96.3694 188.2 94.5077C211.738 46.8706 247.101 16.5361 286.514 16.5361L286.405 16.4266ZM188.638 424.245C157.107 407.161 125.795 382.083 98.2055 351.748C58.2446 307.725 30.6552 257.35 20.5828 209.823C10.62 162.842 18.9406 124.404 44.1214 101.516C59.7774 87.28 81.4548 79.8333 106.964 79.8333C129.955 79.8333 155.136 85.7469 180.755 97.136C182.397 97.9026 184.149 98.6691 185.791 99.4357C189.732 101.297 193.564 103.269 197.506 105.349C225.533 120.352 252.466 141.269 276.223 166.237C277.537 167.551 278.741 168.975 279.945 170.289C282.573 173.246 285.201 176.093 287.828 179.16C327.461 225.373 354.174 276.296 362.823 322.4C371.363 367.628 362.057 405.08 336.767 428.077C321.001 442.423 300.638 449.651 276.004 449.651C274.143 449.651 272.391 449.651 270.53 449.542C263.304 449.213 255.859 448.227 248.305 446.804C246.663 446.366 245.13 445.818 243.597 445.271C244.254 445.599 244.802 445.928 245.459 446.256C237.248 444.504 228.817 441.985 220.278 438.809C209.877 434.977 199.257 430.158 188.638 424.464V424.245ZM462.233 350.763C425.009 392.158 381.107 423.04 338.956 438.919C354.612 427.749 368.954 411.651 381.326 390.844C406.288 348.901 420.082 293.051 420.082 233.805C420.082 181.788 409.463 132.508 390.084 92.8651C412.638 83.7757 434.753 78.9572 455.226 78.9572C479.86 78.9572 500.223 85.9659 515.66 99.8738C568.211 147.182 544.235 259.759 462.342 350.763H462.233Z" fill="#231F20" stroke="white" stroke-width="21" stroke-miterlimit="10"/>
</svg>
