<svg width="481" height="365" viewBox="0 0 481 365" fill="none" xmlns="http://www.w3.org/2000/svg">
<path fill-rule="evenodd" clip-rule="evenodd" d="M444.941 160.672H421.012V43.4219H444.941V56.5469C450.514 46.7031 462.643 42.1094 473.57 42.1094H480.781V65.625H473.351C453.246 65.625 444.832 76.2344 444.832 95.5938V160.562L444.941 160.672ZM0 0H25.6781V98.1094C25.6781 157.062 104.351 152.797 104.351 98V0H128.718V160.562H104.351V146.125C91.7855 157.828 77.3621 163.516 63.2665 163.953C30.5952 165.047 0 138.359 0 94.8281L0 0ZM172.754 160.344H148.933V0H172.754V57.6406C186.084 46.0469 201.71 41.125 216.679 41.5625C255.142 42.875 275.575 70.875 275.903 99.6406C276.231 130.812 253.503 162.969 214.603 164.281C199.743 164.719 184.773 159.141 172.754 146.125V160.234V160.344ZM212.527 63C190.455 63 172.644 80.8281 172.644 102.922C172.644 125.016 190.455 142.844 212.527 142.844C234.599 142.844 252.41 125.016 252.41 102.922C252.41 80.8281 234.49 63 212.527 63ZM405.058 110.359H310.65C317.206 132.234 333.16 143.5 349.987 143.281C361.788 143.062 374.026 137.156 383.642 125.234C388.996 129.391 394.35 133.547 399.704 137.703C382.877 167.781 334.362 169.859 308.902 149.953C290.654 135.625 285.737 117.797 285.956 100.516C286.611 62.2344 318.736 40.25 349.55 40.5781C379.38 40.9062 407.79 62.2344 405.058 110.25V110.359ZM380.91 91.4375C378.069 56.4375 319.938 48.7812 310.978 91.4375H380.91Z" fill="white"/>
<path fill-rule="evenodd" clip-rule="evenodd" d="M31.7969 334.25V294.766H111.781V267.641H31.7969V228.156H114.185V201.031H0.764648V361.484H114.185V334.359H31.7969V334.25ZM477.175 280.547H447.126C446.252 276.5 444.176 273.109 440.789 270.375C436.09 266.547 429.425 263.922 422.541 263.266C411.942 262.281 399.813 267.641 399.485 274.094C399.267 278.031 403.528 282.516 415.439 286.016C435.435 291.813 460.894 289.297 474.881 307.563C491.271 328.891 474.116 362.578 426.912 364C398.721 364.875 369.218 352.516 365.284 322.547H395.005C397.409 327.469 400.578 331.844 405.823 335.125C416.204 341.469 446.689 342.781 448.656 328.016C448.984 325.828 448.001 323.641 445.269 321.672C439.915 317.953 430.19 316.75 421.558 315C384.079 309.859 370.311 297.609 367.688 282.078C366.596 275.297 367.47 268.297 370.639 262.281C372.824 258.125 375.774 254.516 379.271 251.234C390.088 241.172 406.916 236.797 423.306 237.344C446.471 238.109 475.973 250.797 477.066 280.547H477.175ZM357.308 333.703V360.828H324.309C303.985 360.828 292.621 347.375 292.621 328.016V269.5H270.002V242.703H292.621V208.469H322.997V242.703H357.308V269.5H322.997V320.688C322.997 331.953 326.931 333.594 337.639 333.594H357.308V333.703ZM226.732 252.547V242.594H257.655V360.828H226.732V349.781C214.275 359.625 199.633 364.437 185.756 363.781C154.396 362.25 124.347 336 125.112 300.016C125.877 263.703 158.548 238.984 190.455 239.422C203.13 239.531 215.805 243.688 226.732 252.547ZM190.783 265.891C171.114 265.891 155.161 281.859 155.161 301.547C155.161 321.234 171.114 337.203 190.783 337.203C210.451 337.203 226.404 321.234 226.404 301.547C226.404 281.859 210.451 265.891 190.783 265.891Z" fill="white"/>
</svg>
